<svg width="179" height="35" viewBox="0 0 179 35" fill="none" xmlns="http://www.w3.org/2000/svg">
<path d="M0.981534 27V0.818181H7.30966V21.8608H18.2017V27H0.981534ZM30.6438 27.3707C28.5813 27.3707 26.8086 26.9489 25.3256 26.1051C23.8512 25.2528 22.7134 24.0682 21.9123 22.5511C21.1197 21.0256 20.7234 19.2571 20.7234 17.2457C20.7234 15.2259 21.1197 13.4574 21.9123 11.9403C22.7134 10.4148 23.8512 9.23011 25.3256 8.38636C26.8086 7.53409 28.5813 7.10795 30.6438 7.10795C32.7063 7.10795 34.4748 7.53409 35.9492 8.38636C37.4322 9.23011 38.57 10.4148 39.3626 11.9403C40.1637 13.4574 40.5643 15.2259 40.5643 17.2457C40.5643 19.2571 40.1637 21.0256 39.3626 22.5511C38.57 24.0682 37.4322 25.2528 35.9492 26.1051C34.4748 26.9489 32.7063 27.3707 30.6438 27.3707ZM30.6822 22.6534C31.4322 22.6534 32.0671 22.4233 32.587 21.9631C33.1069 21.5028 33.5032 20.8636 33.7759 20.0455C34.0572 19.2273 34.1978 18.2812 34.1978 17.2074C34.1978 16.1165 34.0572 15.1619 33.7759 14.3438C33.5032 13.5256 33.1069 12.8864 32.587 12.4261C32.0671 11.9659 31.4322 11.7358 30.6822 11.7358C29.9066 11.7358 29.2504 11.9659 28.7134 12.4261C28.185 12.8864 27.7802 13.5256 27.4989 14.3438C27.2262 15.1619 27.0898 16.1165 27.0898 17.2074C27.0898 18.2812 27.2262 19.2273 27.4989 20.0455C27.7802 20.8636 28.185 21.5028 28.7134 21.9631C29.2504 22.4233 29.9066 22.6534 30.6822 22.6534ZM52.9201 34.7727C51.0536 34.7727 49.4556 34.5128 48.1261 33.9929C46.7965 33.473 45.7525 32.7614 44.994 31.858C44.2354 30.9545 43.7795 29.9318 43.6261 28.7898L49.5451 28.4574C49.6559 28.858 49.8604 29.2074 50.1587 29.5057C50.4656 29.804 50.8619 30.0341 51.3477 30.196C51.842 30.358 52.4215 30.4389 53.0863 30.4389C54.1346 30.4389 54.9996 30.1832 55.6815 29.6719C56.3718 29.169 56.717 28.2869 56.717 27.0256V23.5739H56.4996C56.2525 24.179 55.8775 24.7202 55.3746 25.1974C54.8718 25.6747 54.2454 26.0497 53.4954 26.3224C52.7539 26.5952 51.9016 26.7315 50.9386 26.7315C49.5067 26.7315 48.1942 26.3991 47.0011 25.7344C45.8164 25.0611 44.8661 24.0213 44.1502 22.6151C43.4428 21.2003 43.0891 19.3807 43.0891 17.1562C43.0891 14.8636 43.4556 12.9759 44.1886 11.4929C44.9215 10.0014 45.8803 8.89773 47.065 8.18182C48.2582 7.46591 49.5408 7.10795 50.913 7.10795C51.9442 7.10795 52.8263 7.28693 53.5593 7.64489C54.3008 7.99432 54.9102 8.44602 55.3874 9C55.8647 9.55398 56.2269 10.1293 56.4741 10.7259H56.6531V7.36364H62.8789V27.0767C62.8789 28.7386 62.4613 30.1406 61.6261 31.2827C60.7908 32.4247 59.6232 33.2898 58.1232 33.8778C56.6232 34.4744 54.8889 34.7727 52.9201 34.7727ZM53.1119 22.1804C53.8704 22.1804 54.5181 21.9801 55.055 21.5795C55.592 21.179 56.0053 20.6037 56.2951 19.8537C56.5849 19.1037 56.7298 18.2045 56.7298 17.1562C56.7298 16.0909 56.5849 15.1747 56.2951 14.4077C56.0139 13.6321 55.6005 13.0355 55.055 12.6179C54.5181 12.2003 53.8704 11.9915 53.1119 11.9915C52.3363 11.9915 51.68 12.2045 51.1431 12.6307C50.6062 13.0568 50.1971 13.6577 49.9158 14.4332C49.6431 15.2003 49.5067 16.108 49.5067 17.1562C49.5067 18.2045 49.6474 19.1037 49.9286 19.8537C50.2099 20.6037 50.6147 21.179 51.1431 21.5795C51.68 21.9801 52.3363 22.1804 53.1119 22.1804ZM76.0305 27.3707C73.968 27.3707 72.1953 26.9489 70.7124 26.1051C69.2379 25.2528 68.1001 24.0682 67.299 22.5511C66.5064 21.0256 66.1101 19.2571 66.1101 17.2457C66.1101 15.2259 66.5064 13.4574 67.299 11.9403C68.1001 10.4148 69.2379 9.23011 70.7124 8.38636C72.1953 7.53409 73.968 7.10795 76.0305 7.10795C78.093 7.10795 79.8615 7.53409 81.3359 8.38636C82.8189 9.23011 83.9567 10.4148 84.7493 11.9403C85.5504 13.4574 85.951 15.2259 85.951 17.2457C85.951 19.2571 85.5504 21.0256 84.7493 22.5511C83.9567 24.0682 82.8189 25.2528 81.3359 26.1051C79.8615 26.9489 78.093 27.3707 76.0305 27.3707ZM76.0689 22.6534C76.8189 22.6534 77.4538 22.4233 77.9737 21.9631C78.4936 21.5028 78.8899 20.8636 79.1626 20.0455C79.4439 19.2273 79.5845 18.2812 79.5845 17.2074C79.5845 16.1165 79.4439 15.1619 79.1626 14.3438C78.8899 13.5256 78.4936 12.8864 77.9737 12.4261C77.4538 11.9659 76.8189 11.7358 76.0689 11.7358C75.2933 11.7358 74.6371 11.9659 74.1001 12.4261C73.5717 12.8864 73.1669 13.5256 72.8857 14.3438C72.6129 15.1619 72.4766 16.1165 72.4766 17.2074C72.4766 18.2812 72.6129 19.2273 72.8857 20.0455C73.1669 20.8636 73.5717 21.5028 74.1001 21.9631C74.6371 22.4233 75.2933 22.6534 76.0689 22.6534ZM96.8878 27V0.818181H103.216V11.3267H113.533V0.818181H119.848V27H113.533V16.4787H103.216V27H96.8878ZM132.996 27.3707C130.942 27.3707 129.17 26.9659 127.678 26.1562C126.195 25.3381 125.053 24.1747 124.252 22.6662C123.46 21.1491 123.063 19.3466 123.063 17.2585C123.063 15.2301 123.464 13.4574 124.265 11.9403C125.066 10.4148 126.195 9.23011 127.653 8.38636C129.11 7.53409 130.827 7.10795 132.805 7.10795C134.202 7.10795 135.481 7.32528 136.64 7.75994C137.799 8.1946 138.8 8.83807 139.644 9.69034C140.488 10.5426 141.144 11.5952 141.613 12.848C142.082 14.0923 142.316 15.5199 142.316 17.1307V18.6903H125.249V15.0597H136.499C136.491 14.3949 136.333 13.8026 136.026 13.2827C135.719 12.7628 135.298 12.358 134.761 12.0682C134.232 11.7699 133.623 11.6207 132.933 11.6207C132.234 11.6207 131.607 11.7784 131.053 12.0938C130.499 12.4006 130.06 12.8224 129.737 13.3594C129.413 13.8878 129.242 14.4886 129.225 15.1619V18.8565C129.225 19.6577 129.383 20.3608 129.698 20.9659C130.013 21.5625 130.461 22.027 131.04 22.3594C131.62 22.6918 132.31 22.858 133.112 22.858C133.665 22.858 134.168 22.7812 134.62 22.6278C135.072 22.4744 135.46 22.2486 135.783 21.9503C136.107 21.652 136.35 21.2855 136.512 20.8509L142.252 21.017C142.013 22.304 141.489 23.4247 140.68 24.3793C139.879 25.3253 138.826 26.0625 137.522 26.5909C136.218 27.1108 134.71 27.3707 132.996 27.3707ZM145.509 27V7.36364H151.581V10.9432H151.786C152.144 9.64773 152.728 8.68466 153.537 8.05398C154.347 7.41477 155.289 7.09517 156.363 7.09517C156.652 7.09517 156.951 7.11648 157.257 7.15909C157.564 7.19318 157.85 7.24858 158.114 7.32528V12.7585C157.816 12.6562 157.424 12.5753 156.938 12.5156C156.461 12.456 156.034 12.4261 155.659 12.4261C154.918 12.4261 154.249 12.5923 153.652 12.9247C153.064 13.2486 152.6 13.7045 152.259 14.2926C151.926 14.8722 151.76 15.554 151.76 16.3381V27H145.509ZM168.821 27.3707C166.767 27.3707 164.994 26.9659 163.502 26.1562C162.02 25.3381 160.877 24.1747 160.076 22.6662C159.284 21.1491 158.887 19.3466 158.887 17.2585C158.887 15.2301 159.288 13.4574 160.089 11.9403C160.89 10.4148 162.02 9.23011 163.477 8.38636C164.934 7.53409 166.652 7.10795 168.629 7.10795C170.027 7.10795 171.305 7.32528 172.464 7.75994C173.623 8.1946 174.625 8.83807 175.468 9.69034C176.312 10.5426 176.968 11.5952 177.437 12.848C177.906 14.0923 178.14 15.5199 178.14 17.1307V18.6903H161.074V15.0597H172.324C172.315 14.3949 172.157 13.8026 171.85 13.2827C171.544 12.7628 171.122 12.358 170.585 12.0682C170.056 11.7699 169.447 11.6207 168.757 11.6207C168.058 11.6207 167.431 11.7784 166.877 12.0938C166.324 12.4006 165.885 12.8224 165.561 13.3594C165.237 13.8878 165.066 14.4886 165.049 15.1619V18.8565C165.049 19.6577 165.207 20.3608 165.522 20.9659C165.838 21.5625 166.285 22.027 166.865 22.3594C167.444 22.6918 168.135 22.858 168.936 22.858C169.49 22.858 169.993 22.7812 170.444 22.6278C170.896 22.4744 171.284 22.2486 171.608 21.9503C171.931 21.652 172.174 21.2855 172.336 20.8509L178.076 21.017C177.838 22.304 177.314 23.4247 176.504 24.3793C175.703 25.3253 174.65 26.0625 173.346 26.5909C172.042 27.1108 170.534 27.3707 168.821 27.3707Z" fill="white"/>
</svg>
